<mxfile host="Electron" modified="2023-06-13T16:53:08.152Z" agent="Mozilla/5.0 (Windows NT 10.0; Win64; x64) AppleWebKit/537.36 (KHTML, like Gecko) draw.io/21.3.7 Chrome/112.0.5615.204 Electron/24.5.0 Safari/537.36" etag="3G_6n7HAzNpJWeV0ZkQ5" version="21.3.7" type="device">
  <diagram name="Page-1" id="SjoEsfmsdk1r0genhgsB">
    <mxGraphModel dx="1098" dy="820" grid="1" gridSize="10" guides="1" tooltips="1" connect="1" arrows="1" fold="1" page="1" pageScale="1" pageWidth="1019" pageHeight="1320" math="0" shadow="0">
      <root>
        <mxCell id="0" />
        <mxCell id="1" parent="0" />
        <mxCell id="Y_zjJ3bofpPAUGnEyFCr-1" value="5" style="rounded=0;whiteSpace=wrap;html=1;" vertex="1" parent="1">
          <mxGeometry x="200" y="160" width="40" height="40" as="geometry" />
        </mxCell>
        <mxCell id="Y_zjJ3bofpPAUGnEyFCr-2" value="2" style="rounded=0;whiteSpace=wrap;html=1;" vertex="1" parent="1">
          <mxGeometry x="240" y="160" width="40" height="40" as="geometry" />
        </mxCell>
        <mxCell id="Y_zjJ3bofpPAUGnEyFCr-3" value="10" style="rounded=0;whiteSpace=wrap;html=1;" vertex="1" parent="1">
          <mxGeometry x="280" y="160" width="40" height="40" as="geometry" />
        </mxCell>
        <mxCell id="Y_zjJ3bofpPAUGnEyFCr-4" value="1" style="rounded=0;whiteSpace=wrap;html=1;" vertex="1" parent="1">
          <mxGeometry x="320" y="160" width="40" height="40" as="geometry" />
        </mxCell>
        <mxCell id="Y_zjJ3bofpPAUGnEyFCr-5" value="4" style="rounded=0;whiteSpace=wrap;html=1;" vertex="1" parent="1">
          <mxGeometry x="360" y="160" width="40" height="40" as="geometry" />
        </mxCell>
        <mxCell id="Y_zjJ3bofpPAUGnEyFCr-6" value="6" style="rounded=0;whiteSpace=wrap;html=1;" vertex="1" parent="1">
          <mxGeometry x="400" y="160" width="40" height="40" as="geometry" />
        </mxCell>
        <mxCell id="Y_zjJ3bofpPAUGnEyFCr-7" value="9" style="rounded=0;whiteSpace=wrap;html=1;" vertex="1" parent="1">
          <mxGeometry x="440" y="160" width="40" height="40" as="geometry" />
        </mxCell>
        <mxCell id="Y_zjJ3bofpPAUGnEyFCr-8" value="3" style="rounded=0;whiteSpace=wrap;html=1;" vertex="1" parent="1">
          <mxGeometry x="480" y="160" width="40" height="40" as="geometry" />
        </mxCell>
        <mxCell id="Y_zjJ3bofpPAUGnEyFCr-9" value="7" style="rounded=0;whiteSpace=wrap;html=1;" vertex="1" parent="1">
          <mxGeometry x="520" y="160" width="40" height="40" as="geometry" />
        </mxCell>
        <mxCell id="Y_zjJ3bofpPAUGnEyFCr-10" value="8" style="rounded=0;whiteSpace=wrap;html=1;" vertex="1" parent="1">
          <mxGeometry x="560" y="160" width="40" height="40" as="geometry" />
        </mxCell>
        <mxCell id="Y_zjJ3bofpPAUGnEyFCr-11" value="0" style="text;html=1;strokeColor=none;fillColor=none;align=center;verticalAlign=middle;whiteSpace=wrap;rounded=0;" vertex="1" parent="1">
          <mxGeometry x="190" y="130" width="60" height="30" as="geometry" />
        </mxCell>
        <mxCell id="Y_zjJ3bofpPAUGnEyFCr-12" value="1" style="text;html=1;strokeColor=none;fillColor=none;align=center;verticalAlign=middle;whiteSpace=wrap;rounded=0;" vertex="1" parent="1">
          <mxGeometry x="230" y="130" width="60" height="30" as="geometry" />
        </mxCell>
        <mxCell id="Y_zjJ3bofpPAUGnEyFCr-13" value="2" style="text;html=1;strokeColor=none;fillColor=none;align=center;verticalAlign=middle;whiteSpace=wrap;rounded=0;" vertex="1" parent="1">
          <mxGeometry x="270" y="130" width="60" height="30" as="geometry" />
        </mxCell>
        <mxCell id="Y_zjJ3bofpPAUGnEyFCr-14" value="3" style="text;html=1;strokeColor=none;fillColor=none;align=center;verticalAlign=middle;whiteSpace=wrap;rounded=0;" vertex="1" parent="1">
          <mxGeometry x="310" y="130" width="60" height="30" as="geometry" />
        </mxCell>
        <mxCell id="Y_zjJ3bofpPAUGnEyFCr-15" value="4" style="text;html=1;strokeColor=none;fillColor=none;align=center;verticalAlign=middle;whiteSpace=wrap;rounded=0;" vertex="1" parent="1">
          <mxGeometry x="350" y="130" width="60" height="30" as="geometry" />
        </mxCell>
        <mxCell id="Y_zjJ3bofpPAUGnEyFCr-16" value="5" style="text;html=1;strokeColor=none;fillColor=none;align=center;verticalAlign=middle;whiteSpace=wrap;rounded=0;" vertex="1" parent="1">
          <mxGeometry x="390" y="130" width="60" height="30" as="geometry" />
        </mxCell>
        <mxCell id="Y_zjJ3bofpPAUGnEyFCr-17" value="6" style="text;html=1;strokeColor=none;fillColor=none;align=center;verticalAlign=middle;whiteSpace=wrap;rounded=0;" vertex="1" parent="1">
          <mxGeometry x="430" y="130" width="60" height="30" as="geometry" />
        </mxCell>
        <mxCell id="Y_zjJ3bofpPAUGnEyFCr-18" value="7" style="text;html=1;strokeColor=none;fillColor=none;align=center;verticalAlign=middle;whiteSpace=wrap;rounded=0;" vertex="1" parent="1">
          <mxGeometry x="470" y="130" width="60" height="30" as="geometry" />
        </mxCell>
        <mxCell id="Y_zjJ3bofpPAUGnEyFCr-19" value="8" style="text;html=1;strokeColor=none;fillColor=none;align=center;verticalAlign=middle;whiteSpace=wrap;rounded=0;" vertex="1" parent="1">
          <mxGeometry x="510" y="130" width="60" height="30" as="geometry" />
        </mxCell>
        <mxCell id="Y_zjJ3bofpPAUGnEyFCr-20" value="9" style="text;html=1;strokeColor=none;fillColor=none;align=center;verticalAlign=middle;whiteSpace=wrap;rounded=0;" vertex="1" parent="1">
          <mxGeometry x="550" y="130" width="60" height="30" as="geometry" />
        </mxCell>
        <mxCell id="Y_zjJ3bofpPAUGnEyFCr-21" value="INDEX" style="text;html=1;strokeColor=none;fillColor=none;align=center;verticalAlign=middle;whiteSpace=wrap;rounded=0;" vertex="1" parent="1">
          <mxGeometry x="140" y="130" width="60" height="30" as="geometry" />
        </mxCell>
        <mxCell id="Y_zjJ3bofpPAUGnEyFCr-22" value="TARGET = 6" style="text;html=1;strokeColor=none;fillColor=none;align=center;verticalAlign=middle;whiteSpace=wrap;rounded=0;" vertex="1" parent="1">
          <mxGeometry x="80" y="165" width="70" height="30" as="geometry" />
        </mxCell>
        <mxCell id="Y_zjJ3bofpPAUGnEyFCr-30" style="edgeStyle=orthogonalEdgeStyle;rounded=0;orthogonalLoop=1;jettySize=auto;html=1;exitX=0.5;exitY=0;exitDx=0;exitDy=0;entryX=0.5;entryY=1;entryDx=0;entryDy=0;" edge="1" parent="1" source="Y_zjJ3bofpPAUGnEyFCr-24" target="Y_zjJ3bofpPAUGnEyFCr-1">
          <mxGeometry relative="1" as="geometry" />
        </mxCell>
        <mxCell id="Y_zjJ3bofpPAUGnEyFCr-24" value="5 != 6" style="text;html=1;strokeColor=none;fillColor=none;align=center;verticalAlign=middle;whiteSpace=wrap;rounded=0;fontColor=#FF6666;" vertex="1" parent="1">
          <mxGeometry x="190" y="210" width="60" height="30" as="geometry" />
        </mxCell>
        <mxCell id="Y_zjJ3bofpPAUGnEyFCr-31" style="edgeStyle=orthogonalEdgeStyle;rounded=0;orthogonalLoop=1;jettySize=auto;html=1;exitX=0.5;exitY=0;exitDx=0;exitDy=0;entryX=0.5;entryY=1;entryDx=0;entryDy=0;" edge="1" parent="1" source="Y_zjJ3bofpPAUGnEyFCr-25" target="Y_zjJ3bofpPAUGnEyFCr-2">
          <mxGeometry relative="1" as="geometry" />
        </mxCell>
        <mxCell id="Y_zjJ3bofpPAUGnEyFCr-25" value="2 != 6" style="text;html=1;strokeColor=none;fillColor=none;align=center;verticalAlign=middle;whiteSpace=wrap;rounded=0;fontColor=#FF6666;" vertex="1" parent="1">
          <mxGeometry x="230" y="240" width="60" height="30" as="geometry" />
        </mxCell>
        <mxCell id="Y_zjJ3bofpPAUGnEyFCr-32" style="edgeStyle=orthogonalEdgeStyle;rounded=0;orthogonalLoop=1;jettySize=auto;html=1;exitX=0.5;exitY=0;exitDx=0;exitDy=0;entryX=0.5;entryY=1;entryDx=0;entryDy=0;" edge="1" parent="1" source="Y_zjJ3bofpPAUGnEyFCr-26" target="Y_zjJ3bofpPAUGnEyFCr-3">
          <mxGeometry relative="1" as="geometry" />
        </mxCell>
        <mxCell id="Y_zjJ3bofpPAUGnEyFCr-26" value="10 != 6" style="text;html=1;strokeColor=none;fillColor=none;align=center;verticalAlign=middle;whiteSpace=wrap;rounded=0;fontColor=#FF6666;" vertex="1" parent="1">
          <mxGeometry x="270" y="280" width="60" height="30" as="geometry" />
        </mxCell>
        <mxCell id="Y_zjJ3bofpPAUGnEyFCr-33" style="edgeStyle=orthogonalEdgeStyle;rounded=0;orthogonalLoop=1;jettySize=auto;html=1;exitX=0.5;exitY=0;exitDx=0;exitDy=0;entryX=0.5;entryY=1;entryDx=0;entryDy=0;" edge="1" parent="1" source="Y_zjJ3bofpPAUGnEyFCr-27" target="Y_zjJ3bofpPAUGnEyFCr-4">
          <mxGeometry relative="1" as="geometry" />
        </mxCell>
        <mxCell id="Y_zjJ3bofpPAUGnEyFCr-27" value="1 != 6" style="text;html=1;strokeColor=none;fillColor=none;align=center;verticalAlign=middle;whiteSpace=wrap;rounded=0;fontColor=#FF6666;" vertex="1" parent="1">
          <mxGeometry x="310" y="330" width="60" height="30" as="geometry" />
        </mxCell>
        <mxCell id="Y_zjJ3bofpPAUGnEyFCr-34" style="edgeStyle=orthogonalEdgeStyle;rounded=0;orthogonalLoop=1;jettySize=auto;html=1;exitX=0.5;exitY=0;exitDx=0;exitDy=0;entryX=0.5;entryY=1;entryDx=0;entryDy=0;" edge="1" parent="1" source="Y_zjJ3bofpPAUGnEyFCr-28" target="Y_zjJ3bofpPAUGnEyFCr-5">
          <mxGeometry relative="1" as="geometry" />
        </mxCell>
        <mxCell id="Y_zjJ3bofpPAUGnEyFCr-28" value="4 != 6" style="text;html=1;strokeColor=none;fillColor=none;align=center;verticalAlign=middle;whiteSpace=wrap;rounded=0;fontColor=#FF6666;" vertex="1" parent="1">
          <mxGeometry x="350" y="370" width="60" height="30" as="geometry" />
        </mxCell>
        <mxCell id="Y_zjJ3bofpPAUGnEyFCr-35" style="edgeStyle=orthogonalEdgeStyle;rounded=0;orthogonalLoop=1;jettySize=auto;html=1;exitX=0.5;exitY=0;exitDx=0;exitDy=0;entryX=0.5;entryY=1;entryDx=0;entryDy=0;" edge="1" parent="1" source="Y_zjJ3bofpPAUGnEyFCr-29" target="Y_zjJ3bofpPAUGnEyFCr-6">
          <mxGeometry relative="1" as="geometry" />
        </mxCell>
        <mxCell id="Y_zjJ3bofpPAUGnEyFCr-29" value="6 == 6&lt;br&gt;DONE" style="text;html=1;strokeColor=none;fillColor=none;align=center;verticalAlign=middle;whiteSpace=wrap;rounded=0;fontColor=#67AB9F;" vertex="1" parent="1">
          <mxGeometry x="390" y="410" width="60" height="30" as="geometry" />
        </mxCell>
      </root>
    </mxGraphModel>
  </diagram>
</mxfile>
